P3
# CREATOR: GIMP PNM Filter Version 1.1
64 47
255
129
129
82
137
126
83
134
121
76
137
124
76
140
128
79
141
133
89
141
135
82
147
134
85
143
129
80
144
131
81
143
132
76
154
144
85
157
147
86
158
146
95
149
137
77
148
135
80
164
143
88
161
140
83
157
141
82
155
140
81
153
143
83
164
151
91
169
152
93
162
153
92
165
156
95
146
177
122
172
165
110
176
163
99
180
165
101
174
159
107
141
130
84
104
85
51
73
53
34
63
43
28
59
40
25
52
37
21
58
40
27
57
40
28
81
58
42
112
82
64
144
122
79
172
152
91
180
167
113
177
164
115
180
168
110
186
175
117
191
174
119
195
179
123
193
177
115
204
190
117
202
187
119
203
187
132
190
182
139
195
181
118
197
176
118
197
176
119
192
172
114
199
179
119
200
181
145
202
184
119
202
180
125
202
180
133
202
190
139
199
187
137
134
125
72
144
129
80
138
126
80
140
129
80
141
129
80
140
130
86
141
134
79
148
136
84
150
137
87
150
138
88
151
141
84
153
142
89
164
152
103
159
146
98
157
145
87
152
138
84
154
135
79
157
138
81
157
143
84
161
144
83
164
151
91
169
152
94
165
149
90
167
174
109
167
160
116
149
176
126
185
174
113
187
157
97
101
84
48
49
27
21
43
21
15
38
18
13
36
22
24
27
11
16
30
16
20
27
17
18
40
24
22
50
31
29
44
29
20
48
21
15
53
25
23
55
29
22
94
77
53
168
144
95
188
168
102
190
167
101
192
175
110
195
179
113
198
184
120
204
187
129
205
188
130
197
182
118
195
184
140
190
175
112
196
175
117
198
178
121
202
181
123
195
175
115
198
178
140
203
186
122
202
185
127
200
181
130
203
193
139
202
191
142
142
130
81
146
134
84
141
129
78
143
130
85
148
134
90
148
136
88
152
141
84
149
137
81
152
142
84
161
149
94
157
147
87
168
156
103
164
154
96
158
147
95
163
152
92
165
148
91
162
146
80
168
148
84
177
162
97
170
146
73
171
150
91
175
157
102
173
154
96
157
183
115
172
159
103
160
182
131
156
140
84
43
23
10
7
2
8
45
26
16
103
63
18
53
29
15
31
20
18
18
13
14
22
14
17
18
6
12
18
10
13
16
11
14
20
9
6
41
22
11
65
36
25
66
35
25
52
24
14
32
8
11
103
78
53
194
159
95
193
174
107
196
176
113
198
190
129
201
193
128
194
187
118
199
183
123
195
178
117
199
178
114
201
183
122
191
176
118
203
182
124
200
180
121
205
186
141
201
188
133
200
190
133
205
190
135
203
198
139
215
210
147
145
134
83
144
132
82
145
133
83
154
142
93
143
131
82
153
141
91
149
139
87
153
145
93
153
147
88
163
156
97
163
152
96
169
157
100
171
156
96
169
156
88
165
151
82
173
154
93
169
148
79
184
158
92
178
154
83
180
156
84
174
157
99
181
167
105
178
162
98
180
161
98
182
169
101
115
114
61
19
7
5
33
22
14
51
34
16
68
40
18
121
74
27
37
27
17
45
30
23
40
17
16
35
21
17
29
20
15
26
17
15
25
16
16
15
10
12
12
6
8
13
7
10
42
26
12
72
35
23
47
24
12
17
11
9
49
33
22
178
151
102
201
182
110
200
181
113
205
193
124
202
196
133
195
186
133
195
185
131
202
184
128
207
189
132
192
176
117
197
181
122
198
182
124
203
189
141
209
198
146
204
195
150
199
189
135
211
204
158
213
211
159
152
140
90
147
135
85
150
137
87
148
136
85
153
141
91
160
148
98
155
144
93
155
148
97
157
150
94
163
157
99
166
154
98
161
147
91
168
151
92
160
144
84
165
149
88
169
149
88
179
157
89
180
155
89
186
163
91
184
161
91
183
168
110
180
163
107
183
166
111
177
162
106
120
101
51
32
21
20
54
35
25
61
40
20
58
31
16
109
72
32
114
78
36
58
41
21
66
41
25
52
30
18
47
37
24
40
30
24
27
20
16
24
19
16
23
17
20
21
15
17
19
13
15
15
9
11
15
11
11
41
21
13
35
18
11
19
17
14
26
17
8
182
156
96
206
184
117
203
189
121
204
195
134
206
199
147
199
190
138
208
191
137
197
181
125
195
179
119
200
184
125
198
184
125
197
185
136
205
195
142
207
199
155
209
202
146
213
204
157
221
211
151
150
144
83
150
142
92
144
135
84
160
149
99
159
147
98
157
145
95
162
151
101
159
153
100
161
154
102
166
159
107
166
154
98
171
160
104
170
159
103
162
151
100
164
154
92
169
155
84
177
160
92
172
153
86
179
159
101
181
161
105
180
163
105
184
167
115
188
171
122
140
118
81
22
4
9
26
22
19
52
37
18
62
47
29
69
51
15
128
90
39
98
64
23
60
43
28
54
38
26
46
32
17
27
19
12
26
17
15
29
25
23
28
23
21
24
12
17
22
12
16
16
10
12
17
10
13
14
8
10
11
7
9
20
13
14
35
24
22
11
10
15
39
23
11
191
167
104
209
189
117
215
208
143
205
196
138
207
196
138
207
191
143
193
180
125
190
180
120
196
187
125
201
191
132
203
190
141
198
189
136
204
196
152
208
196
141
211
201
142
215
205
142
145
139
92
147
141
104
146
145
103
164
153
102
153
141
85
160
146
98
163
151
101
163
153
102
165
156
103
166
157
104
175
163
107
171
160
105
168
154
101
165
154
100
164
154
92
174
160
91
175
156
93
185
164
108
180
162
102
188
171
115
186
170
120
190
173
125
191
173
122
44
30
20
27
17
17
30
23
14
95
63
28
131
97
37
180
140
81
198
148
78
209
162
84
193
147
78
175
131
64
158
112
51
136
96
45
72
47
22
33
17
22
23
13
21
23
12
17
19
13
13
17
11
13
24
18
20
12
6
8
17
11
13
21
14
15
26
17
17
26
13
19
17
9
13
66
54
35
212
191
118
201
193
126
198
192
122
203
197
131
207
202
155
207
199
148
207
196
148
204
194
137
205
194
135
204
192
144
208
198
145
208
199
151
208
197
142
213
203
144
216
208
135
145
143
96
149
146
110
152
144
95
156
140
84
165
150
85
165
148
93
162
146
94
169
157
108
173
162
106
174
162
106
171
160
105
170
157
101
176
158
103
172
161
101
166
157
97
172
161
98
182
162
94
180
159
94
185
175
113
188
177
128
182
177
135
191
179
133
108
86
49
33
17
19
105
71
35
186
148
80
217
172
104
231
188
113
233
189
116
227
186
114
230
188
113
222
176
98
220
174
93
214
160
81
214
157
81
196
141
59
132
89
31
75
50
22
50
33
24
31
23
24
19
14
17
17
11
13
19
13
15
19
13
15
23
17
19
18
13
15
19
8
12
24
13
17
3
1
5
119
97
55
218
198
130
205
192
121
209
195
134
204
203
160
213
207
168
201
193
146
215
203
153
210
200
139
208
197
141
212
201
141
217
205
150
217
206
150
216
205
149
220
209
149
143
138
76
145
140
83
153
143
82
162
143
78
163
145
78
169
154
86
168
155
89
167
157
98
172
161
105
171
168
109
176
160
101
171
156
97
171
155
96
169
156
93
182
161
91
179
162
92
187
167
101
190
176
110
190
182
125
187
178
131
179
178
122
172
157
101
35
19
14
89
67
31
194
136
53
205
153
78
225
189
117
233
200
125
243
209
138
242
202
126
242
210
132
242
208
118
240
195
111
238
187
100
232
180
95
213
157
74
170
119
42
131
90
36
86
56
26
43
25
19
31
17
19
20
13
16
13
7
9
18
12
13
16
10
12
17
11
13
20
17
18
11
9
10
15
11
14
19
7
4
183
160
94
207
200
128
213
215
148
207
201
148
213
204
161
206
199
149
214
203
151
217
206
155
221
213
165
217
208
149
217
208
139
225
211
151
228
214
156
225
215
156
157
152
90
156
151
91
164
154
93
167
149
80
163
145
76
174
159
90
170
156
90
176
166
106
174
165
100
172
171
102
182
165
106
169
153
94
178
162
104
176
162
97
190
167
94
184
165
94
189
167
102
198
185
119
196
189
132
191
183
136
185
169
121
105
81
40
36
25
16
152
110
52
217
165
85
236
198
118
242
215
147
239
216
150
242
219
147
245
214
137
245
224
142
239
215
128
244
210
134
243
202
111
238
194
103
231
175
84
206
151
59
167
117
41
123
86
35
72
51
26
41
28
18
23
16
16
19
13
15
13
7
10
17
11
13
17
11
13
17
16
17
12
12
13
14
8
10
7
9
9
101
82
46
214
194
133
216
204
152
212
206
148
212
204
155
215
206
163
212
200
152
220
208
160
220
213
167
224
214
162
217
207
149
228
213
144
229
215
147
226
216
156
159
158
96
164
153
96
169
159
98
167
153
87
170
155
90
177
162
97
170
154
89
176
168
101
179
167
96
180
164
105
176
167
106
177
166
104
190
175
126
191
170
104
186
164
99
180
177
111
188
185
122
189
180
111
191
183
133
187
182
118
165
147
88
15
8
11
70
43
24
196
135
59
221
177
99
243
202
133
239
209
151
239
214
149
242
208
129
245
211
144
243
209
131
247
218
136
245
211
130
247
206
115
243
191
104
238
188
96
217
158
62
185
122
33
139
97
29
91
64
22
58
39
19
34
25
17
24
15
8
24
18
13
15
9
6
16
10
12
11
10
11
16
16
16
10
10
10
17
18
12
22
6
9
192
169
120
213
204
145
217
211
140
216
201
137
198
193
148
210
207
161
217
205
141
229
214
169
221
204
143
228
218
160
227
219
153
232
221
166
230
220
158
161
159
105
172
164
110
170
160
98
169
157
92
174
162
91
177
165
96
179
165
97
178
168
100
185
172
99
182
167
104
178
168
109
175
166
107
191
183
132
184
175
119
180
171
112
174
176
122
187
188
147
185
193
156
186
198
168
184
196
157
70
49
31
6
9
9
105
78
32
193
138
60
224
176
98
241
203
126
240
205
134
245
213
140
238
207
128
243
211
138
241
209
132
243
211
122
244
209
118
247
202
107
245
194
101
235
183
88
216
160
57
192
135
34
156
107
29
123
85
32
77
50
22
40
27
16
29
21
14
46
30
21
33
20
15
16
11
14
19
18
18
13
13
13
14
14
14
11
14
8
9
3
12
117
98
66
216
201
137
208
203
143
199
186
119
193
189
126
211
200
146
221
200
135
225
205
146
215
196
133
220
205
137
230
220
151
221
214
153
227
217
156
171
170
115
170
167
112
184
171
117
180
170
112
179
170
100
189
181
115
182
171
105
190
174
104
184
168
102
183
167
110
182
171
116
182
171
114
188
177
119
180
168
112
181
170
101
181
166
104
193
186
144
189
187
168
190
205
179
149
141
92
105
77
37
4
2
7
115
84
38
201
148
71
224
170
94
240
202
125
241
198
121
237
197
130
234
195
119
237
198
123
247
209
134
245
204
115
244
204
113
245
193
102
239
187
95
225
169
79
215
160
68
198
143
47
178
122
32
151
103
34
103
70
25
67
44
25
41
26
17
27
19
20
21
14
14
18
11
14
17
16
16
16
17
17
13
13
13
12
10
9
16
8
16
55
47
28
203
190
126
170
174
127
189
177
111
200
183
127
198
188
133
203
183
121
191
181
117
198
198
122
213
212
145
222
218
144
208
214
148
219
210
141
164
161
115
171
168
114
177
168
122
185
175
121
182
173
107
194
183
124
185
175
109
181
171
104
179
169
100
174
163
105
182
171
116
187
174
114
195
182
116
188
172
112
183
167
106
192
175
115
197
186
131
202
196
144
171
160
124
143
114
64
59
37
16
19
13
20
133
94
45
206
150
74
229
180
110
242
195
121
236
188
112
239
191
120
236
198
117
240
193
115
241
198
118
244
202
122
240
199
119
236
185
98
230
177
93
225
169
83
217
162
70
205
151
60
195
139
49
176
120
41
155
109
36
127
90
32
64
42
14
26
15
17
18
14
12
19
15
12
20
14
15
14
9
11
9
9
9
12
9
10
16
10
12
15
10
8
155
148
93
152
159
106
180
163
94
194
175
115
181
167
104
189
175
109
179
177
119
196
201
118
215
203
135
200
212
142
195
212
140
219
213
139
166
164
117
175
172
115
182
176
117
171
168
111
182
182
114
198
186
129
181
171
104
189
181
113
181
172
104
174
163
107
183
171
116
188
179
121
189
184
126
182
168
109
190
175
116
200
185
125
209
192
133
209
195
135
161
126
69
75
47
29
37
28
19
24
18
14
167
117
59
209
150
85
225
176
117
234
184
119
236
193
131
240
204
120
238
202
110
240
196
107
240
199
108
242
201
118
246
203
125
238
197
108
232
191
106
221
173
96
224
177
93
217
170
86
216
161
72
203
145
63
191
134
52
156
109
40
86
56
22
33
21
23
30
26
23
24
19
16
16
10
11
20
14
16
11
11
12
12
10
10
14
9
11
9
4
10
123
113
70
156
152
94
159
139
86
160
152
96
166
162
104
155
150
92
172
168
121
187
193
121
209
206
145
189
203
125
200
220
141
194
200
134
177
163
103
176
165
99
167
162
88
158
148
81
168
161
87
190
183
112
187
173
100
187
180
109
186
173
114
182
168
120
183
172
119
192
182
119
197
185
134
191
181
119
206
198
136
206
195
124
209
193
124
194
173
106
143
111
53
44
28
17
25
21
14
31
21
22
185
133
59
202
149
79
219
175
113
224
181
105
224
183
120
240
204
132
244
201
123
243
200
123
246
204
126
235
195
116
246
200
115
239
185
101
239
192
117
236
181
107
236
182
107
224
170
95
225
173
91
214
162
77
197
144
62
163
112
40
83
55
25
34
23
14
19
14
15
12
6
8
16
9
11
15
8
11
12
12
12
12
12
12
8
9
9
9
4
10
106
95
64
136
138
87
130
123
76
146
142
84
142
139
79
146
144
85
160
158
110
184
183
115
171
187
122
185
193
132
183
203
137
174
193
121
167
144
77
153
131
64
145
132
63
154
135
68
155
153
95
155
153
96
191
183
112
182
172
113
188
179
123
188
178
135
190
180
124
198
186
129
204
195
144
201
190
134
209
200
133
219
207
130
216
202
128
178
162
88
121
94
45
35
22
19
19
14
11
29
20
19
178
124
53
221
167
92
233
184
112
232
184
104
236
191
116
236
195
111
236
193
109
241
199
116
241
198
117
243
195
110
232
172
81
217
154
65
216
160
75
224
172
86
222
169
91
220
166
86
211
158
74
195
142
61
179
131
51
148
103
36
74
43
17
26
16
11
18
14
14
14
8
10
12
9
10
10
8
9
13
13
13
19
17
18
14
10
11
9
5
8
82
72
47
128
122
72
98
101
53
134
125
81
156
142
90
168
156
97
159
157
105
163
167
107
142
164
107
172
187
122
176
197
124
146
172
106
134
116
54
148
129
69
139
126
55
133
124
62
120
122
69
132
133
71
136
146
89
130
139
93
178
170
104
187
175
122
202
196
129
199
185
125
197
192
131
197
189
125
211
200
142
221
207
133
216
200
133
156
129
72
122
97
49
23
13
13
17
10
10
17
9
10
181
121
60
214
158
96
216
162
79
212
147
75
203
144
67
231
176
93
242
189
104
237
185
99
242
190
101
201
145
50
161
111
32
160
111
35
170
121
46
175
121
47
181
129
45
187
131
50
169
121
41
156
108
40
134
99
34
117
90
28
74
49
24
28
16
17
15
10
11
18
12
15
10
9
9
8
8
8
14
14
14
22
19
20
18
11
14
17
13
12
67
55
38
97
101
56
93
105
58
117
119
75
132
134
86
144
146
88
158
152
107
152
156
106
143
163
107
154
174
115
179
198
126
145
169
109
107
95
43
109
94
41
134
113
49
104
98
47
114
122
65
115
117
66
102
105
64
115
123
65
129
122
59
150
149
94
198
192
134
192
186
114
196
190
132
197
189
120
204
201
143
202
192
113
187
186
121
122
114
58
87
71
32
35
27
22
16
9
10
6
7
7
137
99
50
163
121
54
144
96
41
149
107
40
138
90
31
163
113
43
230
173
85
230
174
91
220
155
69
132
87
31
75
54
27
117
84
23
173
122
49
193
142
57
136
90
31
74
45
26
58
38
13
57
38
14
77
58
27
104
80
18
84
63
28
32
20
13
21
17
14
16
11
7
15
14
14
16
16
16
14
14
14
16
13
14
19
13
15
18
13
15
33
28
19
97
99
55
96
99
55
105
107
60
110
112
71
105
117
73
142
148
108
141
150
98
143
156
102
143
168
106
144
158
109
119
139
92
90
77
37
95
81
38
100
90
35
86
72
35
84
79
38
82
74
36
98
90
40
122
115
60
116
115
58
93
104
57
175
179
129
174
178
114
194
198
148
195
188
130
206
204
155
185
185
112
170
172
115
95
84
42
71
56
34
67
37
28
35
16
21
13
5
16
56
33
18
59
36
27
151
98
52
108
73
34
95
75
36
139
93
29
203
145
67
236
181
82
190
131
54
83
55
18
88
55
19
179
118
35
152
99
30
45
20
18
39
30
12
66
51
26
30
15
12
35
21
8
126
96
32
165
118
42
118
80
27
53
34
18
22
13
5
21
15
12
15
14
14
12
12
12
12
12
12
16
13
14
14
8
9
19
14
14
25
20
12
109
101
60
98
95
59
99
101
67
92
86
49
112
113
74
134
147
107
123
152
95
126
151
94
157
169
113
111
137
85
106
123
79
76
66
28
105
87
40
83
75
27
84
81
41
76
72
33
86
82
36
101
88
35
144
129
66
108
119
54
88
102
47
175
180
115
187
180
125
199
194
137
173
167
112
198
201
155
175
179
108
174
167
94
121
107
57
44
35
23
31
24
13
14
10
11
10
8
12
125
89
34
80
53
26
186
129
55
99
56
29
72
42
20
143
96
36
204
143
49
248
195
101
166
119
37
107
65
18
176
115
36
223
170
77
246
186
92
127
85
29
136
91
24
138
94
32
157
116
49
204
158
66
217
164
76
188
135
52
124
87
24
52
39
18
20
12
7
30
18
15
16
15
14
10
10
10
6
6
6
14
12
9
16
11
8
19
14
10
22
18
13
99
101
56
86
90
51
98
104
69
98
106
65
101
107
68
105
114
81
116
132
85
107
122
73
127
132
88
116
136
86
118
131
83
84
71
34
96
82
34
96
91
49
61
62
31
68
69
33
82
78
32
87
81
28
126
119
57
82
91
32
132
132
60
187
182
109
179
168
89
166
156
91
99
94
43
135
140
97
158
157
97
180
170
109
117
104
64
43
24
18
49
25
20
10
6
7
23
14
11
196
132
59
185
137
67
215
149
69
206
153
72
173
117
32
198
147
59
221
167
81
247
201
115
174
123
45
130
94
27
177
129
48
213
153
71
218
158
74
215
150
60
188
134
54
170
119
40
209
155
66
231
174
87
230
173
85
196
140
55
121
86
26
41
29
18
14
10
7
15
11
14
17
16
16
10
10
10
9
10
10
19
17
17
20
14
11
18
13
10
15
10
8
88
92
51
85
92
50
84
96
55
88
92
49
102
106
63
122
134
88
125
139
85
110
116
66
121
139
81
113
138
78
117
136
78
86
80
40
100
95
44
72
71
31
47
46
23
79
79
44
76
71
33
88
88
40
95
103
45
68
74
32
118
118
64
138
137
77
162
139
69
100
90
40
106
102
56
82
89
48
114
118
64
157
149
97
94
81
38
42
31
20
41
20
14
9
4
6
36
26
14
216
157
75
227
182
107
228
174
91
205
154
65
211
158
78
235
183
98
223
168
82
236
190
99
192
132
47
158
113
31
204
147
60
236
182
97
237
184
99
233
188
89
233
190
103
236
194
105
241
186
95
233
177
87
217
154
71
189
129
49
107
72
22
32
22
20
9
7
4
10
11
11
10
10
10
11
11
11
8
8
8
11
9
8
22
16
12
31
26
23
12
8
5
62
68
40
76
81
42
88
92
51
99
100
56
111
112
68
124
135
87
131
149
96
131
145
98
108
126
78
108
126
77
116
138
88
62
62
29
68
68
28
58
58
23
55
57
35
67
72
40
59
65
24
60
57
31
63
70
31
62
68
39
68
65
33
82
82
36
118
99
40
88
77
35
116
111
54
77
79
42
76
80
44
118
109
73
88
73
31
50
34
17
18
8
9
7
3
3
34
22
10
217
151
71
226
179
96
234
185
112
238
191
119
238
192
113
233
178
93
232
180
103
239
187
109
204
146
70
190
136
62
213
153
70
243
193
106
241
203
123
239
210
132
245
206
126
243
202
122
240
182
91
225
157
70
206
142
52
165
113
31
83
59
20
31
19
18
10
5
7
10
3
5
12
11
11
14
14
14
4
4
4
8
8
8
14
15
15
21
16
18
15
10
14
65
70
51
103
102
65
97
98
59
96
98
53
104
105
62
115
123
88
101
125
77
93
121
73
109
127
72
104
122
79
77
99
57
65
65
27
51
50
24
56
53
31
60
64
32
68
75
30
56
70
37
44
47
26
56
60
34
60
65
34
43
38
25
57
56
31
59
66
32
70
63
35
100
91
44
58
58
32
71
74
49
81
71
45
87
71
43
55
37
23
25
13
14
12
5
5
21
10
12
196
131
54
216
159
80
232
176
105
227
193
115
240
196
115
231
176
93
231
190
108
240
198
116
199
150
80
189
143
77
211
161
85
237
187
100
231
188
109
242
199
125
244
196
111
241
189
102
231
172
82
213
148
58
179
124
44
147
96
37
69
42
23
25
15
13
15
10
13
13
7
9
15
14
14
14
13
13
19
19
19
9
9
9
11
11
11
19
14
16
21
14
18
71
66
42
143
134
85
137
128
78
141
134
78
148
139
86
140
139
91
135
142
89
134
141
89
131
140
83
129
140
92
127
150
91
68
75
32
48
52
25
39
42
24
50
55
23
72
79
40
45
54
26
48
56
30
44
47
31
48
51
31
50
54
30
47
47
31
65
80
48
71
72
43
87
81
44
46
49
33
54
61
43
52
43
28
49
35
27
39
21
15
41
21
16
32
20
17
1
1
5
173
116
51
227
168
95
239
182
108
230
195
113
235
185
101
230
178
97
229
188
106
231
187
107
207
160
86
181
132
62
203
157
79
233
181
97
235
185
102
236
191
113
240
186
106
236
180
99
223
160
75
197
133
49
159
111
36
120
87
31
60
41
22
18
14
13
14
7
14
13
7
8
16
10
12
17
11
13
9
10
10
13
13
13
10
11
11
18
13
15
23
18
21
39
37
35
106
102
65
104
105
63
96
97
50
153
142
100
153
153
107
154
161
104
146
163
101
148
173
113
154
179
118
153
177
116
64
71
37
64
70
37
60
61
29
60
64
30
46
50
25
56
61
42
38
41
31
34
35
23
42
46
24
45
47
33
56
57
37
37
47
24
45
54
35
43
45
26
45
49
36
33
35
28
28
25
21
26
14
18
29
16
15
28
16
14
18
9
10
0
3
8
128
82
37
225
161
90
229
168
98
229
181
104
236
180
95
220
167
79
228
190
111
231
186
103
197
149
69
183
133
60
184
136
58
229
176
97
232
179
101
236
187
106
232
176
95
226
169
88
202
148
68
171
119
42
137
97
33
90
63
23
46
28
21
19
13
15
11
5
8
18
12
14
17
12
13
22
16
18
15
15
15
8
8
8
10
10
10
10
6
7
23
17
18
25
25
15
53
54
36
62
70
45
70
78
48
66
70
43
86
94
63
94
111
67
88
106
64
95
117
69
93
116
69
89
115
73
63
68
35
69
73
39
68
67
29
60
64
31
66
71
44
50
55
27
46
50
27
47
51
27
57
61
35
48
51
30
53
56
35
52
54
32
47
47
22
43
45
30
31
33
19
26
27
20
13
16
15
17
13
21
33
15
18
41
22
24
11
4
6
0
0
6
88
59
23
193
126
56
227
162
95
231
169
97
220
158
76
202
148
63
242
197
113
229
175
85
173
125
51
172
122
56
154
104
39
235
182
106
235
182
105
236
184
100
228
173
91
208
152
70
184
131
51
156
107
33
113
81
26
84
59
23
42
22
18
17
11
13
13
7
9
11
5
7
11
5
7
18
12
14
13
13
13
6
6
6
10
10
10
12
6
8
21
15
18
30
23
26
47
46
36
56
60
37
65
71
36
77
82
49
74
81
60
76
92
60
85
100
69
89
105
68
92
108
70
91
103
64
32
34
21
48
50
34
61
66
35
66
71
38
66
71
39
50
54
29
57
63
36
51
59
39
55
61
32
49
52
32
49
52
31
47
51
29
49
52
31
46
50
29
33
34
24
26
28
23
16
10
11
23
11
16
16
7
10
25
15
19
8
2
10
8
3
12
45
26
17
165
110
42
205
143
73
208
150
76
228
172
84
190
144
52
183
126
63
135
88
42
41
22
13
37
20
16
76
50
21
235
176
99
240
183
104
227
170
89
214
154
75
198
137
58
170
118
44
134
92
35
104
73
24
66
45
13
39
26
14
14
8
11
11
5
7
11
5
7
10
5
6
15
9
11
6
6
6
5
5
5
7
7
7
7
7
7
13
12
14
21
14
19
41
39
32
50
53
33
54
57
41
64
67
51
75
82
62
64
78
36
65
79
53
73
87
60
80
95
66
66
81
53
41
42
28
34
38
24
36
39
22
53
58
29
69
74
40
55
59
36
53
58
33
45
51
31
45
48
30
54
55
44
55
59
38
45
50
30
43
47
25
39
42
22
38
39
28
30
31
24
20
15
15
24
12
18
14
12
15
5
3
5
15
6
13
4
2
5
18
11
13
142
87
33
181
117
57
190
133
59
225
170
84
241
196
90
210
161
85
63
42
19
34
28
14
87
59
22
153
115
52
218
159
85
210
155
75
203
146
66
200
147
72
185
132
59
162
110
37
144
101
42
113
81
32
75
53
20
33
20
7
15
10
13
14
8
10
13
7
9
11
5
7
12
6
8
5
6
6
8
8
8
6
6
6
9
9
9
12
11
12
23
17
22
47
46
34
67
74
44
76
82
52
75
81
51
73
81
63
78
94
52
77
91
64
78
93
65
73
88
60
71
86
58
45
44
28
33
41
27
35
36
26
51
54
39
61
67
34
43
46
25
45
48
29
44
45
32
45
47
33
46
48
34
54
62
42
35
41
28
41
48
30
36
43
27
34
41
24
33
35
21
12
10
12
15
8
17
15
8
16
14
7
16
15
9
11
10
4
10
7
5
16
130
87
40
176
118
60
177
124
50
199
146
55
235
179
92
236
185
96
188
138
49
157
113
46
167
119
41
178
128
53
163
118
49
145
109
34
186
132
57
200
146
71
188
135
58
165
112
48
141
100
31
108
76
27
72
48
22
38
22
16
15
9
12
13
7
9
14
8
10
15
9
11
13
8
9
5
6
6
9
9
9
7
7
7
8
8
8
9
9
10
25
18
23
40
39
26
57
72
40
61
76
37
77
83
47
78
92
69
69
91
54
76
86
60
83
100
64
70
85
50
63
78
43
47
46
29
34
40
27
36
38
28
45
47
31
47
50
29
44
47
31
38
41
26
44
46
35
45
47
34
48
50
36
50
58
35
41
47
33
29
34
28
33
40
35
27
34
23
33
34
28
25
24
22
12
10
13
8
6
8
25
14
12
43
22
24
11
4
9
3
3
9
82
53
31
188
129
49
194
138
59
152
101
40
132
87
33
161
108
39
177
112
42
121
74
25
93
62
29
80
56
22
77
55
18
178
129
51
207
155
73
208
155
77
192
139
62
163
115
44
130
91
33
99
69
25
59
39
23
28
16
14
16
11
13
9
5
6
9
9
9
16
11
12
15
8
11
5
6
6
5
5
5
6
6
6
8
8
8
10
10
11
18
16
22
28
27
24
65
77
49
72
85
43
89
99
58
87
92
68
69
92
47
75
93
62
81
99
59
81
98
58
78
94
57
44
41
29
43
51
31
54
57
38
45
48
27
41
44
23
40
42
28
39
41
28
45
47
36
38
40
28
32
34
20
35
42
29
36
43
29
33
40
24
27
32
21
34
43
21
34
47
24
25
30
29
17
17
17
9
9
9
32
23
15
19
10
7
6
6
7
3
3
4
23
16
8
165
113
46
195
136
63
214
159
70
243
187
95
227
167
79
225
157
73
211
151
65
173
114
37
154
107
31
202
140
61
198
146
62
208
153
81
199
146
71
183
129
51
144
105
40
112
82
34
83
64
28
49
31
19
28
17
14
17
11
14
14
10
11
7
7
7
16
12
13
13
7
8
10
11
10
6
6
6
5
5
5
9
9
9
15
15
14
18
18
15
29
30
20
63
77
40
73
85
42
72
84
40
82
87
55
88
114
55
85
107
64
87
103
65
93
109
70
87
104
59
39
41
30
49
51
35
32
34
21
34
36
25
29
31
21
31
33
22
24
26
15
28
30
20
40
42
30
37
39
25
32
39
25
38
42
29
38
40
27
49
55
34
59
68
34
59
69
35
30
31
19
34
29
19
21
15
17
23
17
19
5
6
2
6
6
7
3
1
8
0
0
1
68
46
27
162
113
49
200
145
59
219
169
83
203
146
69
145
91
28
112
80
23
128
91
26
159
109
46
167
121
44
170
121
45
186
131
60
184
131
56
152
109
38
117
85
27
87
62
23
65
51
23
47
31
18
27
17
15
7
7
7
7
7
7
10
10
11
11
6
8
12
6
8
4
5
5
9
9
9
8
8
8
11
11
11
14
13
13
23
21
13
50
40
23
75
76
37
87
96
43
78
85
45
83
87
60
83
96
44
96
102
59
86
101
54
91
106
60
89
105
62
25
26
23
28
30
21
32
34
20
29
31
20
33
35
24
35
37
26
40
42
31
29
31
19
34
39
23
41
44
27
38
49
26
40
47
27
44
46
32
52
53
37
55
58
30
60
62
29
36
33
20
27
21
13
20
12
11
8
5
7
5
7
13
7
7
12
5
4
9
2
3
9
0
5
5
61
45
19
171
118
39
207
151
70
228
171
96
223
170
80
219
166
78
202
144
66
193
145
70
171
124
44
174
126
46
179
126
52
151
109
31
120
83
32
84
60
24
67
46
21
60
44
25
43
30
18
23
14
10
9
7
9
8
6
6
10
8
9
8
5
6
8
4
5
6
7
7
5
5
5
6
6
6
9
9
9
11
12
12
22
20
14
44
32
18
87
80
42
82
87
42
80
84
51
69
74
46
94
105
51
98
124
65
113
121
63
104
109
55
108
118
57
28
29
24
30
31
24
34
36
24
28
30
19
40
42
30
31
33
22
48
50
37
47
48
35
56
70
45
52
56
33
60
72
31
55
64
26
69
75
37
64
69
37
77
83
40
86
95
43
63
64
35
50
41
29
36
28
19
8
9
9
8
8
7
6
7
7
8
9
9
8
8
7
4
3
5
0
0
2
62
38
25
180
135
49
230
177
99
240
191
102
242
198
110
217
172
85
189
142
66
180
132
54
170
123
44
139
108
35
108
82
26
73
55
20
67
46
20
64
42
15
54
36
17
21
22
11
4
5
5
14
7
9
14
7
10
10
3
5
7
6
6
9
10
10
9
9
10
10
10
10
4
4
5
10
10
10
15
15
16
23
21
19
36
27
16
79
74
42
104
104
58
100
99
65
99
98
72
110
110
56
127
126
65
129
119
56
102
112
54
92
101
48
16
15
15
25
25
23
26
27
21
27
28
22
29
31
25
29
31
20
36
38
27
37
39
27
52
57
39
42
45
28
54
60
38
51
57
34
57
65
40
53
55
33
57
60
35
69
69
40
61
58
31
40
33
20
28
15
16
9
11
10
25
19
14
28
20
17
20
13
10
21
16
22
0
2
6
2
4
3
1
3
9
63
41
19
203
146
73
227
170
83
221
168
80
194
139
56
183
133
57
148
111
38
114
85
28
82
62
26
67
50
23
58
43
18
65
44
21
54
38
21
35
24
12
13
11
5
7
5
4
15
9
8
11
7
7
9
8
9
5
4
4
12
12
11
14
15
10
11
12
7
6
7
2
10
10
9
14
14
14
16
13
15
30
19
16
58
51
28
93
92
56
95
94
61
102
95
70
101
99
59
125
125
74
116
119
68
117
116
71
104
106
70
24
25
16
27
29
20
29
30
25
26
27
22
23
25
20
32
34
23
26
29
18
36
38
27
45
46
39
31
31
25
39
45
29
44
51
33
48
56
35
62
67
38
68
72
43
82
82
44
83
82
49
40
30
22
15
16
16
30
17
22
15
8
15
16
7
14
21
9
17
9
3
11
1
3
7
4
4
3
1
2
4
0
2
6
62
43
35
152
110
49
149
106
41
133
95
41
105
78
30
78
61
21
51
39
21
50
38
21
52
36
18
59
40
25
40
27
22
16
7
10
18
9
13
28
23
22
19
14
11
13
8
5
13
10
8
9
9
10
10
11
10
10
10
10
10
9
14
10
9
13
7
6
11
9
8
9
11
11
12
14
11
14
29
22
23
49
51
37
80
91
54
86
95
61
77
79
60
75
81
56
89
99
68
85
96
56
97
108
69
92
103
66
32
33
28
33
34
29
28
29
24
23
24
19
23
24
19
26
26
20
30
32
23
35
36
28
48
51
32
41
42
32
58
60
42
65
69
40
67
72
42
80
80
50
110
111
70
113
110
61
107
104
61
27
16
11
16
20
15
32
17
18
14
8
9
10
7
11
7
0
8
7
6
12
1
1
6
4
4
4
4
4
7
4
3
9
4
4
15
5
7
8
33
24
17
36
16
12
39
27
21
42
31
20
44
32
22
38
24
22
24
18
12
14
9
13
11
6
11
18
12
13
29
20
11
36
21
19
33
17
15
21
10
8
16
14
10
19
12
15
13
12
10
7
7
4
5
4
11
4
4
7
5
6
5
6
5
11
10
9
16
14
13
20
16
15
21
38
40
27
64
68
49
81
85
56
64
66
52
69
76
46
73
84
48
87
102
60
78
92
60
68
82
44
26
27
22
26
27
22
27
29
22
28
27
20
32
31
23
39
41
19
49
50
29
47
48
27
75
78
40
48
48
37
65
70
46
65
67
38
78
80
59
88
86
56
102
100
63
104
99
65
110
106
68
44
36
21
26
18
17
9
5
6
11
6
11
8
5
10
15
10
18
3
2
8
2
2
7
1
1
3
3
2
7
3
2
8
5
3
11
4
3
6
11
10
8
24
9
7
10
6
5
10
7
8
11
10
14
8
6
11
10
4
8
15
9
18
24
14
12
31
23
16
34
24
17
40
26
18
44
29
18
52
36
21
35
28
20
22
13
18
8
4
12
14
11
18
8
7
14
10
9
12
6
6
5
11
7
16
20
17
22
14
13
17
14
15
14
19
18
22
54
56
46
61
65
42
73
75
55
84
91
58
90
99
63
92
99
53
102
108
68
107
110
63
39
40
35
50
51
44
44
46
34
52
49
36
64
60
47
62
59
41
66
62
48
64
60
41
63
67
49
72
77
55
85
92
70
102
101
66
93
92
58
103
99
64
100
95
62
100
96
55
93
89
50
72
65
45
24
19
16
8
2
9
8
8
14
4
4
10
5
4
10
4
3
9
4
3
9
0
0
5
12
12
17
5
4
11
0
0
0
2
1
3
39
32
21
122
85
42
70
55
22
44
37
29
28
28
26
22
17
13
29
20
17
38
28
25
46
31
24
53
38
23
63
45
24
78
57
31
88
68
32
76
56
29
44
34
17
24
14
13
16
9
10
20
14
15
5
5
11
13
12
16
9
10
9
14
8
14
21
17
12
13
13
13
17
17
18
33
35
26
79
77
52
74
74
37
89
95
65
74
80
42
75
82
47
92
94
55
90
92
52
88
101
52
25
26
21
33
35
31
28
33
32
35
37
29
41
42
33
58
60
40
62
64
45
69
70
51
81
87
68
82
90
67
97
96
68
88
88
57
100
100
69
94
89
59
92
87
55
93
89
48
91
87
49
80
74
48
38
30
23
7
4
13
6
6
6
16
13
18
14
9
16
15
9
17
6
1
8
1
0
6
3
3
8
6
5
11
3
2
7
4
2
8
39
27
20
160
121
53
122
95
38
102
79
32
74
60
23
45
39
20
36
30
18
50
42
32
54
40
24
76
53
26
103
75
31
110
86
39
110
89
32
88
62
18
69
51
29
28
16
12
19
13
11
24
19
16
13
9
9
15
12
17
10
11
10
14
9
10
26
23
15
17
17
18
17
16
23
35
37
26
59
62
31
80
73
52
76
76
55
88
91
53
103
100
57
120
110
58
100
97
51
88
84
43
33
34
28
52
53
43
59
57
37
66
69
42
67
72
41
68
73
41
72
77
46
71
76
44
79
86
62
73
81
58
84
82
53
84
84
54
87
86
57
97
93
62
100
96
63
99
95
57
91
88
46
83
80
43
64
58
39
5
5
6
8
8
7
18
14
19
8
2
9
12
6
13
9
3
10
4
4
9
7
6
12
6
5
11
4
3
9
5
5
9
10
7
6
172
133
70
175
140
75
151
119
52
120
96
37
103
81
34
90
76
36
86
73
33
92
71
37
110
81
40
117
91
33
132
103
40
137
110
35
124
92
26
86
59
24
60
38
27
22
14
11
20
15
11
23
18
16
11
7
12
10
12
11
24
10
15
36
23
18
17
18
18
12
11
14
10
8
17
49
50
36
85
81
46
111
102
64
127
123
66
148
137
73
147
136
80
119
118
69
123
130
83
44
46
34
61
63
41
62
59
36
64
60
40
68
68
36
71
77
47
71
76
45
72
77
43
74
83
54
73
82
55
72
75
56
76
81
59
85
91
67
87
87
56
85
84
54
84
84
51
78
78
46
70
69
36
48
49
24
15
10
18
11
4
6
14
8
10
18
12
13
9
8
14
4
4
10
3
2
8
4
3
9
4
3
9
3
2
8
4
4
9
0
0
4
145
119
62
189
151
81
172
138
56
164
128
46
144
112
41
116
96
37
114
96
37
128
105
41
131
101
39
149
113
40
164
123
49
163
123
39
147
112
35
126
93
30
56
42
15
41
31
15
29
23
14
14
10
7
17
11
9
22
14
14
28
18
20
54
36
20
23
20
14
12
9
14
5
4
11
19
25
17
55
52
39
52
46
36
56
53
25
81
79
51
70
69
36
79
77
42
108
104
60
54
56
42
52
54
34
41
40
29
43
42
28
57
57
38
43
44
25
33
33
19
52
56
33
79
85
57
89
96
67
76
77
51
74
75
48
73
76
45
84
87
47
81
83
52
88
91
55
57
58
37
55
57
29
45
43
23
11
5
9
12
9
9
7
4
6
11
8
12
6
5
10
4
3
9
4
3
9
3
3
8
4
3
9
3
6
8
6
4
12
23
21
16
121
94
43
178
147
72
187
148
62
185
145
62
169
130
46
158
117
40
158
116
41
164
122
42
167
122
44
183
139
59
184
136
54
190
144
52
162
119
29
153
111
32
95
69
30
30
24
8
44
28
23
26
17
16
34
22
17
42
27
17
24
14
6
77
62
35
22
15
12
9
6
11
8
7
14
2
5
3
22
21
17
20
20
21
31
35
17
41
45
24
49
56
28
43
44
24
56
51
26
61
66
33
70
77
35
52
58
25
49
53
31
31
33
20
32
27
19
39
39
20
29
31
25
22
23
16
55
57
45
64
59
44
70
69
33
53
49
31
54
57
38
58
62
38
28
31
20
44
50
18
24
26
18
7
8
7
3
2
9
5
5
4
4
4
8
2
2
8
3
2
8
1
0
7
4
3
9
3
2
8
5
4
10
7
5
8
37
27
20
108
91
32
146
111
46
173
138
72
190
147
68
198
153
75
182
139
61
185
142
62
177
134
55
186
139
54
193
147
61
198
152
66
188
142
59
205
161
66
179
133
47
171
123
43
124
88
30
46
31
13
40
25
20
49
35
24
47
33
18
54
43
21
36
27
16
79
65
33
29
16
16
17
14
20
11
10
16
9
8
10
18
18
22
27
26
31
38
41
25
58
63
35
64
76
33
60
58
35
53
52
25
62
68
31
61
65
34
54
58
33
34
32
18
41
39
23
39
36
19
72
70
31
42
41
24
12
11
19
13
11
18
21
21
18
36
38
24
12
12
13
18
17
19
41
43
31
9
8
14
11
11
15
28
29
19
8
7
13
3
2
9
6
6
11
6
6
9
4
5
5
4
3
4
2
2
3
6
5
12
8
7
12
20
14
19
80
66
31
145
116
46
189
148
72
192
149
75
196
155
75
203
156
72
203
158
75
195
153
74
202
155
80
199
154
71
201
155
67
207
160
73
214
168
80
210
164
77
213
168
79
202
149
60
195
146
60
138
93
34
72
49
21
49
35
26
40
25
17
47
36
20
86
60
31
42
33
23
64
48
26
29
17
16
16
14
19
11
10
17
16
15
17
8
7
11
38
33
35
37
34
17
36
32
20
34
36
24
39
41
20
60
60
30
